<svg xmlns="http://www.w3.org/2000/svg" viewBox="0 0 512 512" role="img" aria-labelledby="title desc">
  <title id="title">Сломанный нимб и руна</title>
  <desc id="desc">Расколотый еретический нимб вокруг угловатой руны с подвешенными осколками.</desc>
  <defs>
    <linearGradient id="arc" x1="0" y1="0" x2="1" y2="1">
      <stop offset="0" stop-color="#4debff"/>
      <stop offset=".48" stop-color="#e8dec7"/>
      <stop offset="1" stop-color="#a855f7"/>
    </linearGradient>
  </defs>

  <g fill="none" stroke-linecap="round" stroke-linejoin="round">
    <path d="M109 292A157 157 0 0 1 229 105M278 101a157 157 0 0 1 129 101M416 241a157 157 0 0 1-20 103M365 382a157 157 0 0 1-124 34M194 404a157 157 0 0 1-80-72"
          stroke="url(#arc)" stroke-width="19"/>
    <path d="M132 281A132 132 0 0 1 230 130M285 130a132 132 0 0 1 105 91M388 273a132 132 0 0 1-72 106M237 391a132 132 0 0 1-103-77"
          stroke="#6d2ba2" stroke-width="5" stroke-dasharray="11 13"/>
  </g>

  <g fill="#241134" stroke="#4debff" stroke-width="5">
    <path d="M225 67l24-38 21 41-22 29Z"/>
    <path d="M404 194l45-18-9 45-31 14Z"/>
    <path d="M399 349l37 20-36 27-25-18Z"/>
    <path d="M202 417l-7 52-40-31 11-31Z"/>
    <path d="M105 301l-41 13 7-43 34-9Z"/>
  </g>

  <path d="M260 121l-78 111 44 2-41 94 66-33-12 99 91-133-47 9 42-101-66 40Z"
        fill="#21112e" stroke="#e8dec7" stroke-width="11" stroke-linejoin="round"/>
  <path d="M260 152l-48 69 37 2-29 63 51-27-7 81 50-72-38 8 29-67-51 31Z"
        fill="#6d2ba2" stroke="#a855f7" stroke-width="5" stroke-linejoin="round"/>
  <path d="M260 176l-23 35 29 1-20 37 36-18-8 45 22-31-29 6 17-38-34 20Z"
        fill="#4debff"/>

  <g fill="none" stroke="#a855f7" stroke-width="6" stroke-linecap="round">
    <path d="M145 125l27 34-17 28 25 31"/>
    <path d="M365 102l-24 38 19 27-24 34"/>
    <path d="M134 382l31 21 1 38"/>
    <path d="M359 394l-20 25 8 42"/>
  </g>
  <g fill="#e8dec7" stroke="#4debff" stroke-width="4">
    <circle cx="145" cy="125" r="8"/>
    <circle cx="365" cy="102" r="8"/>
    <circle cx="134" cy="382" r="8"/>
    <circle cx="359" cy="394" r="8"/>
  </g>
</svg>
