<svg xmlns="http://www.w3.org/2000/svg" viewBox="0 0 512 512" role="img" aria-labelledby="title desc">
  <title id="title">Расколотая восьмилучевая звезда хаоса</title>
  <desc id="desc">Старая живая печать без перегруженной сердцевины: восемь неравных копий, разорванные кольца и пустое место для Ока Хоруса.</desc>
  <defs>
    <linearGradient id="violetEdge" x1="0" y1="0" x2="1" y2="1">
      <stop offset="0" stop-color="#c9bca5"/>
      <stop offset=".22" stop-color="#6c347e"/>
      <stop offset=".72" stop-color="#3b183f"/>
      <stop offset="1" stop-color="#a67d55"/>
    </linearGradient>
  </defs>

  <g fill="none" stroke-linecap="round" stroke-linejoin="round">
    <circle cx="256" cy="256" r="111" stroke="#120817" stroke-width="24" opacity=".92"/>
    <circle cx="256" cy="256" r="111" stroke="#75408a" stroke-width="9"
            stroke-dasharray="92 22 37 17 68 28" transform="rotate(-17 256 256)"/>
    <circle cx="256" cy="256" r="80" stroke="#2b132f" stroke-width="13"/>
    <circle cx="256" cy="256" r="80" stroke="url(#violetEdge)" stroke-width="4"
            stroke-dasharray="42 16 8 13" transform="rotate(11 256 256)" opacity=".82"/>

    <g stroke="#100713" stroke-width="25" opacity=".96">
      <path d="M256 151V57l-18 24 18-58 18 58-18-24"/>
      <path d="M330 182l65-65-5 31 34-52-53 33 32-4-74 74"/>
      <path d="M361 256h88l-25-17 66 17-66 17 25-17"/>
      <path d="M330 330l59 59 2-29 26 57-57-26 29-2-70-70"/>
      <path d="M256 361v89l19-24-19 64-19-64 19 24"/>
      <path d="M182 330l-67 67 32-7-51 34 33-53-5 32 71-71"/>
      <path d="M151 256H62l24 19-64-19 64-19-24 19"/>
      <path d="M182 182l-62-62-1 29-27-56 57 26-29 1 73 73"/>
    </g>

    <path d="M256 151V57l-18 24 18-58 18 58-18-24" stroke="#7f4596" stroke-width="11"/>
    <path d="M330 182l65-65-5 31 34-52-53 33 32-4-74 74" stroke="#b9aa94" stroke-width="9"/>
    <path d="M361 256h88l-25-17 66 17-66 17 25-17" stroke="#713983" stroke-width="11"/>
    <path d="M330 330l59 59 2-29 26 57-57-26 29-2-70-70" stroke="#9b7658" stroke-width="9"/>
    <path d="M256 361v89l19-24-19 64-19-64 19 24" stroke="#cabda8" stroke-width="11"/>
    <path d="M182 330l-67 67 32-7-51 34 33-53-5 32 71-71" stroke="#54245f" stroke-width="9"/>
    <path d="M151 256H62l24 19-64-19 64-19-24 19" stroke="#a88c69" stroke-width="11"/>
    <path d="M182 182l-62-62-1 29-27-56 57 26-29 1 73 73" stroke="#653273" stroke-width="9"/>

    <path d="M205 205l20 8M307 198l-19 12M313 306l-21-9M201 313l22-11"
          stroke="#c9bca5" stroke-width="4" opacity=".42"/>
  </g>

  <g fill="#120817" stroke="#78438b" stroke-width="4">
    <circle cx="119" cy="204" r="10"/>
    <circle cx="389" cy="218" r="7"/>
    <path d="M176 386l13-19 13 19-13 19Z"/>
    <path d="M326 105l11-18 11 18-11 18Z"/>
  </g>
</svg>
