<svg xmlns="http://www.w3.org/2000/svg" viewBox="0 0 512 512" role="img" aria-labelledby="title desc">
  <title id="title">Рогатый череп варпа</title>
  <desc id="desc">Оригинальная симметричная эмблема рогатого черепа в костяных, фиолетовых и циановых цветах.</desc>
  <defs>
    <linearGradient id="bone" x1="0" y1="0" x2="0" y2="1">
      <stop offset="0" stop-color="#fff7e5"/>
      <stop offset=".55" stop-color="#e8dec7"/>
      <stop offset="1" stop-color="#aa9a87"/>
    </linearGradient>
    <linearGradient id="horn" x1="0" y1="0" x2="1" y2="1">
      <stop offset="0" stop-color="#3a145f"/>
      <stop offset=".58" stop-color="#a855f7"/>
      <stop offset="1" stop-color="#4debff"/>
    </linearGradient>
  </defs>

  <g fill="none" stroke-linecap="round" stroke-linejoin="round">
    <path d="M207 158C151 139 98 105 71 52c-7 54 4 99 35 132-25-5-47-17-67-35 9 55 49 96 111 110"
          stroke="url(#horn)" stroke-width="18"/>
    <path d="M305 158c56-19 109-53 136-106 7 54-4 99-35 132 25-5 47-17 67-35-9 55-49 96-111 110"
          stroke="url(#horn)" stroke-width="18"/>
    <path d="M192 174c-38-20-70-48-94-84 9 47 37 83 79 107M320 174c38-20 70-48 94-84-9 47-37 83-79 107"
          stroke="#4debff" stroke-width="4" opacity=".72"/>
  </g>

  <path d="M256 132c-81 0-132 55-132 130 0 42 19 76 49 97l9 64 41 8 13 32h40l13-32 41-8 9-64c30-21 49-55 49-97 0-75-51-130-132-130Z"
        fill="url(#bone)" stroke="#a855f7" stroke-width="8" stroke-linejoin="round"/>
  <path d="M173 278c7-39 37-60 72-53l-12 68-51 21Z" fill="#170d26" stroke="#512076" stroke-width="7"/>
  <path d="M339 278c-7-39-37-60-72-53l12 68 51 21Z" fill="#170d26" stroke="#512076" stroke-width="7"/>
  <path d="M256 267l-23 81 23 19 23-19Z" fill="#22132f" stroke="#a855f7" stroke-width="6"/>

  <g fill="none" stroke="#4debff">
    <path d="M224 192l32-24 32 24-32 18Z" stroke-width="5"/>
    <path d="M256 168v42" stroke-width="3"/>
    <path d="M190 268l27-15M322 268l-27-15" stroke-width="5"/>
  </g>

  <path d="M182 365c25 19 47 25 74 25s49-6 74-25l-6 55-36 8-12-31h-40l-12 31-36-8Z"
        fill="#c9bca5" stroke="#6f5d7e" stroke-width="6"/>
  <g stroke="#6f5d7e" stroke-width="5">
    <path d="M213 388l3 35M241 393v38M271 393v38M299 388l-3 35"/>
  </g>
  <path d="M151 330l-25 45 43-11M361 330l25 45-43-11" fill="#a855f7" stroke="#4debff" stroke-width="4"/>
</svg>
