<svg xmlns="http://www.w3.org/2000/svg" viewBox="0 0 512 512" role="img" aria-labelledby="title desc">
  <title id="title">Ритуальное Око Хоруса</title>
  <desc id="desc">Строгое Око Хоруса: костяное веко, вертикальный живой зрачок и один нижний крюк без цветной клипартной заливки.</desc>
  <defs>
    <radialGradient id="iris" cx="44%" cy="40%" r="62%">
      <stop offset="0" stop-color="#d8f1ed"/>
      <stop offset=".24" stop-color="#3bb8c5"/>
      <stop offset=".64" stop-color="#4b2357"/>
      <stop offset="1" stop-color="#130817"/>
    </radialGradient>
  </defs>

  <g fill="none" stroke-linecap="round" stroke-linejoin="round">
    <path d="M57 224C137 139 285 122 447 196C324 166 184 174 57 224Z"
          fill="#1a0b20" stroke="#c9bca5" stroke-width="12"/>
    <path d="M57 235C139 183 220 169 299 180C355 188 402 208 455 241
             C390 270 326 286 257 286C178 286 111 269 57 235Z"
          fill="#0c050f" fill-opacity=".94" stroke="#745080" stroke-width="9"/>
    <path d="M59 235C135 225 200 205 248 180M455 241C389 235 339 216 301 181"
          stroke="#b6976e" stroke-width="5" opacity=".72"/>
  </g>

  <ellipse cx="262" cy="231" rx="51" ry="60" fill="url(#iris)" stroke="#c9bca5" stroke-width="8"/>
  <ellipse cx="262" cy="232" rx="17" ry="43" fill="#09040b"/>
  <ellipse cx="251" cy="207" rx="7" ry="11" fill="#e7ddcb" opacity=".78"/>

  <path d="M261 291C253 329 229 358 188 381C225 389 269 369 286 332
           C291 320 293 306 291 291Z"
        fill="#17091c" stroke="#c9bca5" stroke-width="9" stroke-linejoin="round"/>
  <path d="M291 291C308 320 339 336 388 334C352 354 331 380 322 418
           C309 374 288 341 260 318Z"
        fill="#16091b" stroke="#684077" stroke-width="9" stroke-linejoin="round"/>
  <path d="M321 414L337 373" fill="none" stroke="#3bb8c5" stroke-width="5" stroke-linecap="round" opacity=".8"/>
</svg>
