<svg xmlns="http://www.w3.org/2000/svg" viewBox="0 0 512 512" role="img" aria-labelledby="title desc">
  <title id="title">Глаз варпа</title>
  <desc id="desc">Нечеловеческий глаз с ломаным веком, спиральной радужкой и светящимися слезами варпа.</desc>
  <defs>
    <radialGradient id="iris" cx="43%" cy="38%" r="62%">
      <stop offset="0" stop-color="#f8f1dc"/>
      <stop offset=".24" stop-color="#4debff"/>
      <stop offset=".66" stop-color="#a855f7"/>
      <stop offset="1" stop-color="#241134"/>
    </radialGradient>
  </defs>

  <g fill="none" stroke-linecap="round" stroke-linejoin="round">
    <path d="M54 268c45-75 111-116 202-116 91 0 157 41 202 116-55 61-121 92-202 92S109 329 54 268Z"
          fill="#e8dec7" fill-opacity=".13" stroke="#a855f7" stroke-width="13"/>
    <path d="M54 268l51-14-22-24 58 5-11-34 54 21 4-38 40 31 28-63 25 63 43-31 1 39 56-22-13 35 61-6-24 25 53 13"
          stroke="#4debff" stroke-width="6" opacity=".78"/>
    <path d="M54 268l52 16-20 27 59-9-8 38 50-25 8 36 38-25 23 34 27-34 40 26 5-38 51 26-8-38 59 9-22-27 50-16"
          stroke="#7b38bd" stroke-width="7"/>
  </g>

  <circle cx="256" cy="264" r="91" fill="url(#iris)" stroke="#4debff" stroke-width="8"/>
  <path d="M256 199c39 0 65 25 65 62 0 31-20 54-49 60 25-16 32-44 19-65-13-22-41-28-62-14-17 11-23 33-14 51-20-12-30-34-26-55 6-25 31-39 55-31 18 6 28 24 23 41-4 14-18 22-31 18 7-1 12-6 13-12 2-8-5-15-13-15-13 0-22 13-18 25 6 20 27 31 47 24 25-8 37-36 25-60-7-15-20-24-34-29Z"
        fill="#170d26" opacity=".88"/>
  <path d="M256 203c-30 13-46 42-39 69 8 29 39 45 68 35 24-8 37-35 26-58-9-19-32-27-50-17-14 8-18 27-9 40"
        fill="none" stroke="#fff7e5" stroke-width="7" stroke-linecap="round"/>
  <path d="M256 218c-16 0-29 20-29 46s13 46 29 46 29-20 29-46-13-46-29-46Z" fill="#0b0612"/>
  <circle cx="247" cy="244" r="9" fill="#fff7e5"/>

  <g stroke-linejoin="round">
    <path d="M182 357c-2 36 21 49 14 82 31-25 35-53 13-82Z" fill="#a855f7" stroke="#4debff" stroke-width="5"/>
    <path d="M326 352c-2 27 17 38 9 63 27-18 30-42 14-64Z" fill="#4debff" stroke="#e8dec7" stroke-width="5"/>
    <path d="M256 373l-12 44 12 25 12-25Z" fill="#241134" stroke="#a855f7" stroke-width="5"/>
  </g>
</svg>
